<?xml version="1.0" encoding="utf-8"?>
<!-- Generator: Adobe Illustrator 18.1.1, SVG Export Plug-In . SVG Version: 6.00 Build 0)  -->
<svg version="1.2" baseProfile="tiny" id="Layer_1" xmlns="http://www.w3.org/2000/svg" xmlns:xlink="http://www.w3.org/1999/xlink"
	 x="0px" y="0px" viewBox="0 0 284.2 277.6" xml:space="preserve">
<g>
	<polygon fill="#231F20" points="251.8,157.9 251.8,131.5 275.9,158 281.4,158 281.4,115.1 273,115.1 273,141.6 249.6,114.7 
		243.9,114.7 243.9,157.9 	"/>
	<rect x="258.2" y="0.1" fill="#231F20" width="9" height="43.2"/>
	<g>
		<polygon fill="#231F20" points="160.1,43.5 144.4,11.9 128.9,43.6 119.7,43.6 141.8,0.4 147.6,0.4 169.6,43.6 		"/>
		<rect x="133.7" y="22.8" fill="#231F20" width="23.2" height="7.8"/>
	</g>
	<g>
		<rect x="241.2" y="231.4" fill="#231F20" width="43" height="7.9"/>
		<rect x="258.4" y="231.4" fill="#231F20" width="9" height="43.1"/>
	</g>
	<g>
		<rect x="3.1" y="0" fill="#231F20" width="8.9" height="43.2"/>
		<rect x="3.2" y="0" fill="#231F20" width="26.8" height="8.9"/>
		<rect x="3.2" y="18" fill="#231F20" width="27.1" height="8.9"/>
		<path fill="#231F20" d="M29.6,0c0,0,13.2-0.9,13.5,12.9c0,0,0.9,13.9-13.5,13.9l0-8.9c0,0,4.8,0.3,4.5-4.6c0,0,0.4-4.5-4.5-4.5
			L29.6,0z"/>
	</g>
	<g>
		<polygon fill="#231F20" points="160.5,275.1 124.4,231.4 135.2,231.4 171.4,275.1 		"/>
		<polygon fill="#231F20" points="134.9,275.1 171,231.4 160.2,231.4 124.1,275.1 		"/>
	</g>
	<path fill="#231F20" d="M23.1,231.4C10.3,231.4,0,241.7,0,254.5c0,12.8,10.3,23.1,23.1,23.1c12.8,0,23.1-10.3,23.1-23.1
		C46.2,241.7,35.8,231.4,23.1,231.4z M23.1,269.8c-8.4,0-14.9-6.8-14.9-15.3c0-8.4,6.4-15.3,14.9-15.3s14.9,6.8,14.9,15.3
		C37.9,262.9,31.5,269.8,23.1,269.8z"/>
	<path fill="#231F20" d="M37.4,134.2c1.2-1.3,3.8-4.7,3-10.8c0,0-0.5-8.6-12-8.6c-7.4,0-26.4,0.2-26.4,0.2v20l0,0v23.1h28.9
		c0,0,13.3-0.3,13.3-14.1C44.2,143.8,43.9,136.7,37.4,134.2z M9.8,122.6c0,0,14.2-0.1,18.7-0.1s4.5,4,4.5,4c0,4.5-4.4,4.4-4.4,4.4
		H9.8V122.6z M36.3,144.6c0,5.9-6.6,5.8-6.6,5.8H9.9v-11.6c0,0,12.6,0,19.8,0C36.9,138.8,36.3,144.6,36.3,144.6z"/>
</g>
</svg>
